HIERARCHY
ROOT Hips
{
    OFFSET   0.000000   0.000000   0.000000
    CHANNELS 6 Xposition Yposition Zposition Zrotation Xrotation Yrotation
    JOINT Chest
    {
        OFFSET   0.000000   8.007230   0.000000
        CHANNELS 3 Zrotation Xrotation Yrotation
        JOINT Chest2
        {
            OFFSET   0.000000  22.077100   0.000000
            CHANNELS 3 Zrotation Xrotation Yrotation
            JOINT Neck
            {
                OFFSET   0.000000  23.254800  -0.000021
                CHANNELS 3 Zrotation Xrotation Yrotation
                JOINT Head
                {
                    OFFSET   0.000000  14.370000   1.956610
                    CHANNELS 3 Zrotation Xrotation Yrotation
                    End Site
                    {
                        OFFSET   0.000000  19.566000   0.000000
                    }
                }
            }
            JOINT LeftCollar
            {
                OFFSET   3.911900  19.017000  -0.467063
                CHANNELS 3 Zrotation Xrotation Yrotation
                JOINT LeftShoulder
                {
                    OFFSET  10.383700   0.000000   0.000000
                    CHANNELS 3 Zrotation Xrotation Yrotation
                    JOINT LeftElbow
                    {
                        OFFSET  26.662100   0.001529   0.000325
                        CHANNELS 3 Zrotation Xrotation Yrotation
                        JOINT LeftWrist
                        {
                            OFFSET  28.869000  -0.000011  -0.000096
                            CHANNELS 3 Zrotation Xrotation Yrotation
                            JOINT LeftFinger0
                            {
                                OFFSET   2.044650  -2.323460   3.252850
                                CHANNELS 3 Zrotation Xrotation Yrotation
                                JOINT LeftFinger01
                                {
                                    OFFSET   3.088130   0.000000   0.000000
                                    CHANNELS 3 Zrotation Xrotation Yrotation
                                    JOINT LeftFinger02
                                    {
                                        OFFSET   2.639460   0.000000   0.000000
                                        CHANNELS 3 Zrotation Xrotation Yrotation
                                        End Site
                                        {
                                            OFFSET   2.582190   0.000000   0.000000
                                        }
                                    }
                                }
                            }
                            JOINT LeftFinger1
                            {
                                OFFSET   8.364480   0.000000   3.252850
                                CHANNELS 3 Zrotation Xrotation Yrotation
                                JOINT LeftFinger11
                                {
                                    OFFSET   4.646930   0.000000   0.000000
                                    CHANNELS 3 Zrotation Xrotation Yrotation
                                    JOINT LeftFinger12
                                    {
                                        OFFSET   2.323460   0.000000   0.000000
                                        CHANNELS 3 Zrotation Xrotation Yrotation
                                        End Site
                                        {
                                            OFFSET   2.273050   0.000000   0.000000
                                        }
                                    }
                                }
                            }
                            JOINT LeftFinger2
                            {
                                OFFSET   8.364480   0.000016   1.078090
                                CHANNELS 3 Zrotation Xrotation Yrotation
                                JOINT LeftFinger21
                                {
                                    OFFSET   5.111620   0.000000   0.000000
                                    CHANNELS 3 Zrotation Xrotation Yrotation
                                    JOINT LeftFinger22
                                    {
                                        OFFSET   2.788160   0.000017   0.000000
                                        CHANNELS 3 Zrotation Xrotation Yrotation
                                        End Site
                                        {
                                            OFFSET   2.727660   0.000000   0.000000
                                        }
                                    }
                                }
                            }
                            JOINT LeftFinger3
                            {
                                OFFSET   7.899780   0.000015  -1.078090
                                CHANNELS 3 Zrotation Xrotation Yrotation
                                JOINT LeftFinger31
                                {
                                    OFFSET   4.646920   0.000000   0.000000
                                    CHANNELS 3 Zrotation Xrotation Yrotation
                                    JOINT LeftFinger32
                                    {
                                        OFFSET   2.323470   0.000000   0.000000
                                        CHANNELS 3 Zrotation Xrotation Yrotation
                                        End Site
                                        {
                                            OFFSET   2.273050   0.000000   0.000000
                                        }
                                    }
                                }
                            }
                            JOINT LeftFinger4
                            {
                                OFFSET   7.435090   0.000000  -3.252850
                                CHANNELS 3 Zrotation Xrotation Yrotation
                                JOINT LeftFinger41
                                {
                                    OFFSET   3.717550   0.000000   0.000000
                                    CHANNELS 3 Zrotation Xrotation Yrotation
                                    JOINT LeftFinger42
                                    {
                                        OFFSET   1.858760   0.000000   0.000000
                                        CHANNELS 3 Zrotation Xrotation Yrotation
                                        End Site
                                        {
                                            OFFSET   1.818440   0.000000   0.000000
                                        }
                                    }
                                }
                            }
                        }
                    }
                }
            }
            JOINT RightCollar
            {
                OFFSET  -3.911900  19.017000  -0.467062
                CHANNELS 3 Zrotation Xrotation Yrotation
                JOINT RightShoulder
                {
                    OFFSET -10.383700   0.000015   0.000000
                    CHANNELS 3 Zrotation Xrotation Yrotation
                    JOINT RightElbow
                    {
                        OFFSET -26.662100   0.001341   0.000385
                        CHANNELS 3 Zrotation Xrotation Yrotation
                        JOINT RightWrist
                        {
                            OFFSET -28.869000   0.000025  -0.000080
                            CHANNELS 3 Zrotation Xrotation Yrotation
                            JOINT RightFinger0
                            {
                                OFFSET  -2.044650  -2.323490   3.252850
                                CHANNELS 3 Zrotation Xrotation Yrotation
                                JOINT RightFinger01
                                {
                                    OFFSET  -3.088130   0.000000   0.000000
                                    CHANNELS 3 Zrotation Xrotation Yrotation
                                    JOINT RightFinger02
                                    {
                                        OFFSET  -2.639460   0.000000   0.000000
                                        CHANNELS 3 Zrotation Xrotation Yrotation
                                        End Site
                                        {
                                            OFFSET  -2.582190   0.000000   0.000000
                                        }
                                    }
                                }
                            }
                            JOINT RightFinger1
                            {
                                OFFSET  -8.364480   0.000000   3.252850
                                CHANNELS 3 Zrotation Xrotation Yrotation
                                JOINT RightFinger11
                                {
                                    OFFSET  -4.646930   0.000000   0.000000
                                    CHANNELS 3 Zrotation Xrotation Yrotation
                                    JOINT RightFinger12
                                    {
                                        OFFSET  -2.323470   0.000000   0.000000
                                        CHANNELS 3 Zrotation Xrotation Yrotation
                                        End Site
                                        {
                                            OFFSET  -2.273050   0.000000   0.000000
                                        }
                                    }
                                }
                            }
                            JOINT RightFinger2
                            {
                                OFFSET  -8.364480   0.000000   1.078090
                                CHANNELS 3 Zrotation Xrotation Yrotation
                                JOINT RightFinger21
                                {
                                    OFFSET  -5.111610   0.000000   0.000000
                                    CHANNELS 3 Zrotation Xrotation Yrotation
                                    JOINT RightFinger22
                                    {
                                        OFFSET  -2.788160   0.000000   0.000000
                                        CHANNELS 3 Zrotation Xrotation Yrotation
                                        End Site
                                        {
                                            OFFSET  -2.727660   0.000000   0.000000
                                        }
                                    }
                                }
                            }
                            JOINT RightFinger3
                            {
                                OFFSET  -7.899780   0.000000  -1.078090
                                CHANNELS 3 Zrotation Xrotation Yrotation
                                JOINT RightFinger31
                                {
                                    OFFSET  -4.646920   0.000000   0.000000
                                    CHANNELS 3 Zrotation Xrotation Yrotation
                                    JOINT RightFinger32
                                    {
                                        OFFSET  -2.323470   0.000000   0.000000
                                        CHANNELS 3 Zrotation Xrotation Yrotation
                                        End Site
                                        {
                                            OFFSET  -2.273050   0.000000   0.000000
                                        }
                                    }
                                }
                            }
                            JOINT RightFinger4
                            {
                                OFFSET  -7.435090   0.000000  -3.252850
                                CHANNELS 3 Zrotation Xrotation Yrotation
                                JOINT RightFinger41
                                {
                                    OFFSET  -3.717550   0.000000   0.000000
                                    CHANNELS 3 Zrotation Xrotation Yrotation
                                    JOINT RightFinger42
                                    {
                                        OFFSET  -1.858770   0.000000   0.000000
                                        CHANNELS 3 Zrotation Xrotation Yrotation
                                        End Site
                                        {
                                            OFFSET  -1.818440   0.000000   0.000000
                                        }
                                    }
                                }
                            }
                        }
                    }
                }
            }
        }
    }
    JOINT LeftHip
    {
        OFFSET   9.783010   0.000000   0.000000
        CHANNELS 3 Zrotation Xrotation Yrotation
        JOINT LeftKnee
        {
            OFFSET   0.000070 -41.789100   0.000028
            CHANNELS 3 Zrotation Xrotation Yrotation
            JOINT LeftAnkle
            {
                OFFSET   0.000087 -41.133200  -0.000100
                CHANNELS 3 Zrotation Xrotation Yrotation
                JOINT LeftToe
                {
                    OFFSET   0.000000  -6.358960  14.674500
                    CHANNELS 3 Zrotation Xrotation Yrotation
                    End Site
                    {
                        OFFSET   0.000000   0.000000   3.913200
                    }
                }
            }
        }
    }
    JOINT RightHip
    {
        OFFSET  -9.783020   0.000000   0.000000
        CHANNELS 3 Zrotation Xrotation Yrotation
        JOINT RightKnee
        {
            OFFSET   0.000044 -41.789100  -0.000870
            CHANNELS 3 Zrotation Xrotation Yrotation
            JOINT RightAnkle
            {
                OFFSET  -0.000090 -41.133200  -0.000245
                CHANNELS 3 Zrotation Xrotation Yrotation
                JOINT RightToe
                {
                    OFFSET   0.000000  -6.358960  14.674500
                    CHANNELS 3 Zrotation Xrotation Yrotation
                    End Site
                    {
                        OFFSET   0.000000   0.000000   3.913200
                    }
                }
            }
        }
    }
}
MOTION
Frames: 6
Frame Time:   0.016667
  0.240155  89.554700  -2.284660  -0.555632  -1.083370  -0.232128   0.438606   2.815280   0.284365   0.864765   5.632630   0.548111  -0.512525  -0.412940  -0.001157  -0.842102  -0.837087  -0.109601  -5.404200   1.230660   8.028750 -78.639700   5.366520  -1.442620  -0.506325   2.361190 -14.532000  11.054500  -3.308550  -1.480420  42.380300  37.306100 -52.848700 -32.419200  -0.001354   0.000000 -11.209600   0.000000   0.002935 -36.309000  -0.911732   1.240530 -29.715400   0.003592   0.000412 -20.799600  -0.009947   0.001156 -32.802800  -3.663130   5.663380 -49.475100  -0.012341   0.002283 -32.950400  -0.000447   0.003218 -28.725200  -4.039210   7.323790 -43.475800   0.004731   0.001876 -28.954900  -0.000084   0.002642 -36.632800  -5.010240   6.698960 -55.389300   0.005533   0.003466 -36.889300  -0.002207   0.003930   9.535380   4.856570   6.127770  70.709000  -4.317420  -0.450180   4.247000  -3.767450  15.741900 -19.765400  -2.189430   2.516740 -41.922600  38.202500  73.640900  30.197700   0.004452  -0.002517  10.106900   0.003639  -0.004326  41.332500  11.474100  12.744900  34.869400  -0.002499   0.006511  24.940000   0.005988   0.007311  35.511700  -0.215568  -0.301912  53.268500  -0.008681  -0.007526  35.476800   0.000836   0.002274  35.291400  -0.214406  -0.302738  52.938000   0.003264  -0.007168  35.256700   0.001075   0.014516  47.075400  -3.420500  -3.161350  70.754800   0.005256   0.003445  47.122700   0.002051   0.001168   1.315090   2.476360  -1.134810   0.083323   0.915844   9.418560  -0.636960  -2.193950  -0.398788  -0.000000   0.000000  -0.000000   1.066630   3.257490  -0.693734   0.448331   0.356668 -12.097600  -1.247650  -2.444200   1.787810  -0.000000   0.000000  -0.000000
  0.236528  89.554600  -2.284640  -0.555593  -1.099970  -0.227520   0.440249   2.826450   0.283456   0.868062   5.654970   0.546127  -0.512748  -0.392166  -0.001153  -0.842486  -0.795019  -0.115933  -5.403850   1.230850   8.028750 -78.612100   5.385430  -1.467560  -0.519869   2.310920 -14.556700  11.037500  -3.266770  -1.490720  42.413700  37.360600 -52.928500 -32.425900   0.005446   0.003906 -11.212900  -0.000097   0.002802 -36.314600  -0.894760   1.217200 -29.719700  -0.003612  -0.006278 -20.799600  -0.010213  -0.005102 -32.808600  -3.663130   5.663370 -49.483900  -0.012895  -0.002591 -32.956200  -0.000489  -0.004344 -28.729500  -4.027260   7.301140 -43.479800  -0.005460  -0.011124 -28.957600  -0.000091  -0.008375 -36.638800  -4.995480   6.678010 -55.395700  -0.007013  -0.016524 -36.893500  -0.002282  -0.011922   9.527390   4.852520   6.127800  70.723200  -4.289600  -0.439765   4.236740  -3.781900  15.768000 -19.743900  -2.264420   2.539750 -41.957500  38.255500  73.725200  30.201800   0.004451  -0.002516  10.107000   0.003630  -0.004322  41.371600  11.474900  12.728700  34.900100  -0.002483   0.006476  24.968600   0.005979   0.007280  35.519600  -0.216286  -0.302913  53.280300  -0.008687  -0.007524  35.484700   0.000832   0.002233  35.302200  -0.215124  -0.303737  52.954200   0.003271  -0.007181  35.267400   0.001060   0.014542  47.086500  -3.420720  -3.161420  70.771200   0.005232   0.003406  47.133600   0.002031   0.001151   1.315020   2.488130  -1.134600   0.083529   0.918259   9.418510  -0.637267  -2.195640  -0.404602   0.000000   0.000000   0.000000   1.076200   3.258310  -0.701798   0.439484   0.381153 -12.091400  -1.245740  -2.453430   1.782770   0.000000   0.000000  -0.000000
  0.229868  89.554600  -2.284620  -0.555480  -1.128120  -0.218286   0.443652   2.845260   0.281033   0.874933   5.692590   0.540968  -0.512971  -0.356130  -0.001144  -0.842859  -0.722075  -0.127429  -5.401290   1.231030   8.028760 -78.569700   5.417760  -1.501320  -0.535441   2.260440 -14.602800  11.013500  -3.204540  -1.506130  42.447300  37.415000 -53.008600 -32.437500   0.012246   0.007811 -11.218700  -0.000231   0.002585 -36.320300  -0.877787   1.193860 -29.724000  -0.011584  -0.012967 -20.799600  -0.010480  -0.011361 -32.816400  -3.663140   5.663370 -49.495700  -0.013450  -0.008284 -32.964100  -0.000560  -0.012335 -28.733700  -4.015310   7.278500 -43.483700  -0.016651  -0.024125 -28.960200  -0.000104  -0.019469 -36.644800  -4.980720   6.657060 -55.402000  -0.020890  -0.036513 -36.897700  -0.002408  -0.027982   9.520990   4.833430   6.128130  70.745300  -4.235080  -0.429337   4.212590  -3.795700  15.827900 -19.697000  -2.339380   2.573060 -41.970900  38.308400  73.809700  30.207200   0.004448  -0.002510  10.107200   0.003613  -0.004319  41.429400  11.476000  12.704900  34.945500  -0.002447   0.006399  25.010900   0.005958   0.007211  35.527400  -0.221312  -0.309919  53.292100  -0.008700  -0.007521  35.492500   0.000819   0.002149  35.312900  -0.220154  -0.310736  52.970300   0.003286  -0.007215  35.278100   0.001030   0.014603  47.097600  -3.420950  -3.161550  70.787600   0.005171   0.003318  47.144500   0.001986   0.001115   1.315130   2.509100  -1.134400   0.083735   0.920674   9.418450  -0.637696  -2.197330  -0.413613   0.000000   0.000000  -0.000000   1.092230   3.264110  -0.713730   0.424716   0.405644 -12.081200  -1.244100  -2.462670   1.771610   0.000000   0.000000   0.000000
  0.223419  89.554500  -2.284750  -0.555272  -1.151250  -0.206743   0.447826   2.859830   0.276306   0.883459   5.721710   0.531434  -0.512914  -0.323675  -0.001133  -0.842682  -0.656475  -0.132944  -5.392820   1.230960   8.037560 -78.542800   5.446190  -1.509460  -0.528294   2.311250 -14.653500  11.002700  -3.164520  -1.516220  42.412900  37.377100 -52.919200 -32.449100   0.011816   0.007520 -11.224600  -0.000283   0.002375 -36.312900  -0.884872   1.203820 -29.718100  -0.012478  -0.012902 -20.799500  -0.008621  -0.011349 -32.818200  -3.663150   5.663350 -49.498300  -0.010502  -0.009240 -32.965900  -0.000630  -0.012835 -28.728700  -4.019650   7.287970 -43.476700  -0.017818  -0.024054 -28.955500  -0.000115  -0.019558 -36.640200  -4.986300   6.665870 -55.395700  -0.022443  -0.036436 -36.893400  -0.002536  -0.028224   9.524120   4.795140   6.148230  70.756800  -4.174990  -0.453231   4.178060  -3.778210  15.899800 -19.643600  -2.329150   2.591380 -41.930000  38.272800  73.811000  30.208600   0.004430  -0.002500  10.106800   0.003592  -0.004335  41.456000  11.476600  12.693900  34.966400  -0.002393   0.006289  25.030400   0.005931   0.007113  35.518600  -0.234175  -0.327994  53.279000  -0.008718  -0.007518  35.483700   0.000794   0.002034  35.309900  -0.232995  -0.328821  52.965900   0.003305  -0.007267  35.275200   0.000991   0.014693  47.096600  -3.419960  -3.161680  70.786100   0.005080   0.003194  47.143500   0.001922   0.001063   1.316510   2.527260  -1.135590   0.082709   0.920577   9.418460  -0.637427  -2.195260  -0.418879  -0.000000   0.000000   0.000000   1.105240   3.293450  -0.719595   0.413325   0.386543 -12.073800  -1.247580  -2.453470   1.756090  -0.000000   0.000000   0.000000
  0.215897  89.554500  -2.284930  -0.555046  -1.175840  -0.195126   0.452692   2.876430   0.272257   0.893365   5.754900   0.522705  -0.512521  -0.290852  -0.001117  -0.842057  -0.590078  -0.150907  -5.381950   1.230630   8.046360 -78.521700   5.473950  -1.513290  -0.513296   2.392140 -14.704400  10.998800  -3.144950  -1.521200  42.359300  37.315700 -52.778800 -32.458200   0.010691   0.006851 -11.229100  -0.000298   0.002250 -36.305200  -0.898018   1.222050 -29.712100  -0.012606  -0.012445 -20.799500  -0.005164  -0.011265 -32.819200  -3.663170   5.663350 -49.499800  -0.005738  -0.009377 -32.966900  -0.000671  -0.012906 -28.722500  -4.028760   7.305930 -43.469700  -0.017984  -0.023556 -28.950900  -0.000122  -0.019571 -36.634200  -4.997910   6.682330 -55.389300  -0.022665  -0.035894 -36.889200  -0.002612  -0.028259   9.532790   4.735830   6.182370  70.768000  -4.103770  -0.507609   4.132550  -3.751680  16.012300 -19.558100  -2.314540   2.599390 -41.847900  38.195700  73.782500  30.208800   0.004403  -0.002480  10.104400   0.003564  -0.004360  41.481300  11.477100  12.683400  34.986400  -0.002336   0.006173  25.049000   0.005899   0.007008  35.498400  -0.252816  -0.354430  53.248700  -0.008741  -0.007514  35.463600   0.000764   0.001920  35.301600  -0.251602  -0.355280  52.953500   0.003330  -0.007330  35.267000   0.000955   0.014797  47.089700  -3.416480  -3.161740  70.775600   0.004966   0.003063  47.136600   0.001854   0.001009   1.320430   2.549920  -1.138620   0.079302   0.919899   9.418550  -0.637165  -2.193190  -0.424362   0.000000   0.000000  -0.000000   1.118870   3.335520  -0.724707   0.402383   0.363000 -12.065200  -1.253170  -2.444270   1.738890  -0.000000   0.000000  -0.000000
  0.207130  89.554500  -2.285000  -0.554878  -1.202190  -0.186735   0.457901   2.898170   0.271286   0.903779   5.798390   0.519958  -0.507087  -0.260481  -0.001093  -0.833193  -0.528390  -0.194351  -5.371080   1.220390   8.045290 -78.508300   5.498340  -1.523550  -0.500631   2.449680 -14.744400  11.006300  -3.161080  -1.515220  42.316300  37.260000 -52.663900 -32.459700   0.008341   0.005627 -11.229800   0.000100   0.002334 -36.307700  -0.914986   1.245190 -29.714500  -0.004603  -0.004238 -20.800700  -0.001207  -0.004005 -32.822400  -3.663190   5.663350 -49.504600  -0.001818  -0.004081 -32.970100  -0.000643  -0.005216 -28.726700  -4.041510   7.327270 -43.478900  -0.006949  -0.007993 -28.957000  -0.000117  -0.007051 -36.642400  -5.014040   6.701310 -55.404700  -0.009631  -0.012300 -36.899500  -0.002562  -0.010537   9.555220   4.645090   6.220030  70.786200  -4.020660  -0.585872   4.074970  -3.735200  16.186200 -19.422200  -2.307280   2.561890 -41.759900  38.064600  73.663000  30.198200   0.004378  -0.002442  10.098100   0.003524  -0.004377  41.506900  11.477600  12.672600  35.006500  -0.002291   0.006067  25.067800   0.005863   0.006910  35.467300  -0.282452  -0.396825  53.205100  -0.008770  -0.007508  35.434100   0.000733   0.001835  35.283000  -0.281216  -0.397685  52.925900   0.003361  -0.007399  35.248700   0.000942   0.014900  47.069200  -3.408770  -3.161660  70.744700   0.004837   0.002939  47.116000   0.001789   0.000957   1.328070   2.581780  -1.143210   0.073438   0.911337   9.421010  -0.638521  -2.193850  -0.432167  -0.000000   0.000000   0.000000   1.133630   3.368800  -0.730110   0.390075   0.360054 -12.053400  -1.257510  -2.448360   1.720220  -0.000000   0.000000   0.000000
